<svg version="1.0" xmlns="http://www.w3.org/2000/svg"
 width="216.000000pt" height="211.000000pt" viewBox="0 0 216.000000 211.000000"
 preserveAspectRatio="xMidYMid meet">
<metadata>
</metadata>
<g transform="translate(0.000000,211.000000) scale(0.100000,-0.100000)"
fill="#000000" stroke="none">
<path d="M985 1830 c-90 -15 -136 -30 -219 -72 -125 -65 -219 -142 -283 -233
-31 -45 -93 -162 -93 -177 0 -7 -7 -26 -15 -41 -20 -39 -39 -222 -30 -301 l7
-66 756 2 757 3 9 59 c12 74 -6 237 -34 318 -45 129 -133 258 -228 333 -31 25
-62 50 -69 55 -25 20 -135 72 -205 96 -81 27 -260 40 -353 24z m780 -600 c0
-20 -6 -26 -27 -28 -28 -3 -28 -4 -28 -83 l0 -79 -30 0 -30 0 0 79 0 79 -30 4
-29 4 -3 -80 c-3 -77 -4 -81 -27 -84 -13 -2 -28 2 -32 10 -13 19 -11 182 2
195 7 7 53 10 122 9 l112 -1 0 -25z m-574 -21 c60 2 69 -12 69 -104 l0 -66
-27 3 c-26 3 -28 7 -33 58 -6 61 -24 74 -28 20 -5 -66 -11 -80 -36 -80 -29 0
-32 9 -31 90 1 70 9 95 27 84 6 -4 33 -6 59 -5z m-703 -24 c7 -43 15 -50 21
-15 5 31 10 35 39 38 29 3 33 0 38 -27 7 -35 24 -32 24 5 0 20 5 24 30 24 17
0 30 -5 30 -12 0 -9 3 -9 12 0 16 16 93 15 106 -1 6 -7 12 -35 14 -62 4 -68
21 -59 22 13 l1 57 53 3 c45 3 52 0 52 -15 0 -23 -11 -38 -32 -46 -14 -5 -18
-18 -18 -56 l0 -49 -100 0 c-117 0 -125 5 -117 76 5 46 5 46 -8 17 -8 -16 -17
-45 -21 -63 -6 -30 -9 -33 -38 -30 -24 2 -32 8 -34 28 -6 41 -20 45 -29 9 -7
-26 -15 -35 -35 -37 -28 -3 -41 20 -53 93 -3 22 -8 48 -11 58 -5 15 -1 18 23
15 19 -2 29 -9 31 -23z m586 3 c9 -12 16 -42 16 -65 0 -57 -26 -83 -80 -83
-54 0 -80 26 -80 83 0 64 21 87 80 87 39 0 52 -4 64 -22z m356 -71 c0 -79 -3
-94 -22 -114 -15 -16 -33 -23 -58 -23 -60 0 -69 18 -73 151 -3 66 12 78 89 78
l64 -1 0 -91z"/>
<path d="M1356 885 c-16 -8 -79 -64 -142 -124 -130 -125 -174 -151 -260 -151
-51 0 -71 6 -139 42 -71 38 -87 42 -145 42 -43 0 -80 -7 -110 -21 -25 -11 -53
-23 -62 -26 -26 -9 -23 -19 26 -79 91 -111 218 -189 391 -241 107 -33 286 -30
411 6 47 13 182 74 194 87 3 3 16 11 30 18 33 17 127 106 172 163 29 36 108
169 108 181 0 2 -37 3 -82 3 l-83 0 -94 58 c-79 48 -102 57 -140 57 -25 0 -59
-7 -75 -15z"/>
</g>
</svg>